<?xml version="1.0" encoding="utf-8"?>

<svg version="1.1" id="Icons" xmlns="http://www.w3.org/2000/svg" xmlns:xlink="http://www.w3.org/1999/xlink" x="0px" y="0px"
	 viewBox="0 0 32 32" style="enable-background:new 0 0 32 32;" xml:space="preserve">
<style type="text/css">
	.st0{fill:none;stroke:#000000;stroke-width:2;stroke-linecap:round;stroke-linejoin:round;stroke-miterlimit:10;}
</style>
<path d="M24,16c-4.4,0-8,3.6-8,8s3.6,8,8,8s8-3.6,8-8S28.4,16,24,16z M27,25h-2v2c0,0.6-0.4,1-1,1s-1-0.4-1-1v-2h-2
	c-0.6,0-1-0.4-1-1s0.4-1,1-1h2v-2c0-0.6,0.4-1,1-1s1,0.4,1,1v2h2c0.6,0,1,0.4,1,1S27.6,25,27,25z"/>
<g>
	<path d="M16,11c-2.2,0-4,2.2-4,5c0,2.1,1.1,3.9,2.6,4.7c0.9-2.6,2.8-4.7,5.3-5.8C19.5,12.7,17.9,11,16,11z"/>
	<path d="M31,5H1C0.4,5,0,5.4,0,6v20c0,0.6,0.4,1,1,1h13.5c-0.3-0.9-0.5-2-0.5-3H7c-0.6,0-1-0.4-1-1c0-1.1-0.9-2-2-2
		c-0.6,0-1-0.4-1-1v-8c0-0.6,0.4-1,1-1c1.1,0,2-0.9,2-2c0-0.6,0.4-1,1-1h18c0.6,0,1,0.4,1,1c0,1.1,0.9,2,2,2c0.6,0,1,0.4,1,1v3.4
		c1.2,0.7,2.2,1.6,3,2.7V6C32,5.4,31.6,5,31,5z"/>
</g>
</svg>
